<?xml version="1.0" standalone="no"?><!DOCTYPE svg PUBLIC "-//W3C//DTD SVG 1.1//EN" "http://www.w3.org/Graphics/SVG/1.1/DTD/svg11.dtd"><svg t="1691817120807" class="icon" viewBox="0 0 1024 1024" version="1.1" xmlns="http://www.w3.org/2000/svg" p-id="102225" xmlns:xlink="http://www.w3.org/1999/xlink" width="16" height="16"><path d="M893.952 62.464l-49.152 84.992c-13.312 23.552 3.072 53.248 30.72 53.248h98.304c26.624 0 44.032-29.696 30.72-53.248l-49.152-84.992c-14.336-23.552-48.128-23.552-61.44 0zM52.224 953.344l84.992 49.152c23.552 13.312 53.248-3.072 53.248-30.72v-98.304c0-26.624-29.696-44.032-53.248-30.72l-84.992 49.152c-23.552 14.336-23.552 48.128 0 61.44zM122.88 744.448V254.976C122.88 182.272 182.272 122.88 256 122.88h490.496V33.792H256C134.144 33.792 34.816 133.12 34.816 254.976v488.448H122.88z" fill="#009F72" p-id="102226"></path><path d="M925.696 924.672m-55.296 0a55.296 55.296 0 1 0 110.592 0 55.296 55.296 0 1 0-110.592 0Z" fill="#EFD152" p-id="102227"></path><path d="M863.232 924.672c0-18.432 8.192-34.816 21.504-46.08H172.032c-24.576 0-44.032 19.456-44.032 44.032s19.456 44.032 44.032 44.032H880.64c-11.264-10.24-17.408-24.576-17.408-41.984z" fill="#009F72" p-id="102228"></path><path d="M925.696 863.232c16.384 0 31.744 7.168 43.008 17.408V171.008c0-24.576-19.456-44.032-44.032-44.032S880.64 146.432 880.64 171.008v711.68c10.24-12.288 26.624-19.456 45.056-19.456z" fill="#009F72" p-id="102229"></path><path d="M189.44 409.6c58.368-53.248 97.28-95.232 97.28-129.024 0-21.504-12.288-32.768-30.72-32.768-16.384 0-28.672 10.24-39.936 22.528l-30.72-29.696c22.528-24.576 44.032-35.84 77.824-35.84 45.056 0 76.8 28.672 76.8 73.728 0 39.936-34.816 84.992-70.656 120.832 11.264-2.048 27.648-3.072 37.888-3.072h43.008v47.104H189.44V409.6zM394.24 207.872h67.584c71.68 0 118.784 33.792 118.784 115.712s-47.104 117.76-115.712 117.76h-70.656V207.872z m64.512 188.416c37.888 0 64.512-17.408 64.512-72.704 0-55.296-26.624-70.656-64.512-70.656H450.56v144.384h8.192z" fill="#EFD152" p-id="102230"></path></svg>