<?xml version="1.0" standalone="no"?><!DOCTYPE svg PUBLIC "-//W3C//DTD SVG 1.1//EN" "http://www.w3.org/Graphics/SVG/1.1/DTD/svg11.dtd"><svg t="1691817877189" class="icon" viewBox="0 0 1024 1024" version="1.1" xmlns="http://www.w3.org/2000/svg" p-id="152814" xmlns:xlink="http://www.w3.org/1999/xlink" width="16" height="16"><path d="M879.26 298.1L512.1 479.19 144.82 298.1a24.41 24.41 0 0 1 1.28-45.17l339.11-148.36a61.14 61.14 0 0 1 52.42 0l339 146.7a25.07 25.07 0 0 1 2.69 46.83z" fill="#adebf6" p-id="152815"></path><path d="M438 920.52L127.21 752.69a49 49 0 0 1-29.55-43.92V371.44a29.38 29.38 0 0 1 44.42-21.54l345.53 174.46v376.69a30.83 30.83 0 0 1-49.73 19.47z" fill="#ff926e" p-id="152816"></path><path d="M587.4 920.52l310.8-167.83a50 50 0 0 0 28.26-43.92V371.44A29.38 29.38 0 0 0 882 349.9L533.94 524.36v376.69a32.78 32.78 0 0 0 53.5 19.47z" fill="#ffdb7a" p-id="152817"></path></svg>