<svg xmlns="http://www.w3.org/2000/svg" xmlns:xlink="http://www.w3.org/1999/xlink" fill="none" version="1.1" width="56" height="56" viewBox="0 0 56 56"><g><g><ellipse cx="28" cy="28" rx="28" ry="28" fill="#00D8C8" fill-opacity="1"/></g><g><path d="M6.547,35.412L11.035,35.412C13.806,35.412,15.897,34.239000000000004,15.897,31.706C15.897,30.023,14.911,29.054000000000002,13.551,28.731L13.551,28.663C14.622,28.272,15.268,27.099,15.268,25.926000000000002C15.268,23.58,13.296,22.815,10.712,22.815L6.547,22.815L6.547,35.412ZM9.062999999999999,27.948999999999998L9.062999999999999,24.753L10.559000000000001,24.753C12.072,24.753,12.82,25.195,12.82,26.3C12.82,27.303,12.14,27.948999999999998,10.542,27.948999999999998L9.062999999999999,27.948999999999998ZM9.062999999999999,33.474000000000004L9.062999999999999,29.802L10.814,29.802C12.548,29.802,13.449,30.329,13.449,31.553C13.449,32.861999999999995,12.514,33.474000000000004,10.814,33.474000000000004L9.062999999999999,33.474000000000004ZM23.118,35.7662C26.4494,35.7662,28.7459,33.2538,28.7459,28.970599999999997C28.7459,24.69846,26.4494,22.30783,23.118,22.30783C19.7866,22.30783,17.490099999999998,24.69846,17.490099999999998,28.970599999999997C17.490099999999998,33.2538,19.7866,35.7662,23.118,35.7662ZM23.118,33.5914C21.2476,33.5914,20.0744,31.7763,20.0744,28.970599999999997C20.0744,26.159399999999998,21.2476,24.47157,23.118,24.47157C24.9885,24.47157,26.1782,26.159399999999998,26.1782,28.970599999999997C26.1782,31.7763,24.9885,33.5914,23.118,33.5914ZM34.982600000000005,35.7662C37.8879,35.7662,39.6089,34.0175,39.6089,31.8869C39.6089,29.9833,38.6017,28.9485,37.0744,28.2955L35.4253,27.5982C34.3517,27.1389,33.471900000000005,26.801299999999998,33.471900000000005,25.855C33.471900000000005,24.98622,34.1525,24.47157,35.2538,24.47157C36.3107,24.47157,37.1408,24.87554,37.9432,25.5562L39.216,23.94032C38.1978,22.90549,36.731300000000005,22.30783,35.2538,22.30783C32.719300000000004,22.30783,30.9041,23.90712,30.9041,26.0155C30.9041,27.9358,32.1935,29.0038,33.471900000000005,29.535L35.1375,30.304299999999998C36.2554,30.802300000000002,37.0412,31.101100000000002,37.0412,32.080600000000004C37.0412,33.0048,36.343900000000005,33.5914,35.032399999999996,33.5914C33.931200000000004,33.5914,32.719300000000004,33.0048,31.8394,32.135999999999996L30.395,33.9345C31.618,35.1242,33.3003,35.7662,34.982600000000005,35.7662ZM45.6076,35.7662C48.5129,35.7662,50.2339,34.0175,50.2339,31.8869C50.2339,29.9833,49.2267,28.9485,47.6994,28.2955L46.0503,27.5982C44.9767,27.1389,44.0969,26.801299999999998,44.0969,25.855C44.0969,24.98622,44.7775,24.47157,45.8788,24.47157C46.9357,24.47157,47.7658,24.87554,48.5682,25.5562L49.841,23.94032C48.8228,22.90549,47.3563,22.30783,45.8788,22.30783C43.3443,22.30783,41.5291,23.90712,41.5291,26.0155C41.5291,27.9358,42.8185,29.0038,44.0969,29.535L45.7625,30.304299999999998C46.8804,30.802300000000002,47.6662,31.101100000000002,47.6662,32.080600000000004C47.6662,33.0048,46.9689,33.5914,45.6574,33.5914C44.5562,33.5914,43.3443,33.0048,42.4644,32.135999999999996L41.02,33.9345C42.243,35.1242,43.9253,35.7662,45.6076,35.7662Z" fill="#FFFFFF" fill-opacity="1"/></g></g></svg>