<?xml version="1.0" standalone="no"?><!DOCTYPE svg PUBLIC "-//W3C//DTD SVG 1.1//EN" "http://www.w3.org/Graphics/SVG/1.1/DTD/svg11.dtd"><svg t="1691813938733" class="icon" viewBox="0 0 1024 1024" version="1.1" xmlns="http://www.w3.org/2000/svg" p-id="38055" xmlns:xlink="http://www.w3.org/1999/xlink" width="16" height="16"><path d="M576.378 230.847h-333.943c-93.939 0-170.371 74.856-170.371 166.851v393.785c0 91.999 76.431 166.801 170.371 166.801h333.943c93.942 0 170.374-74.802 170.374-166.801v-393.785c0-91.995-76.432-166.851-170.374-166.851zM746.752 63.998h-333.919c-82.285 0-151.136 57.413-166.948 133.481h108.003c11.826-19.866 33.857-33.369 58.944-33.369h333.918c37.498 0 68.149 30.067 68.149 66.738v393.786c0 24.579-13.746 46.095-34.052 57.706v105.79c77.669-15.543 136.299-82.915 136.299-163.498v-393.786c0.002-91.995-76.431-166.85-170.393-166.85z" fill="#5B6179" p-id="38056"></path><path d="M110.779 630.171l140.184-140.183 37.107 37.107-101.834 101.813 100.161 100.207-38.325 38.324zM696.746 623.999l-140.183 140.187-37.112-37.064 101.858-101.856-100.182-100.162 38.346-38.373z" fill="#D9DEE7" p-id="38057"></path><path d="M409.26 443.551l-46.339 351.963 44.299 5.587 46.343-351.913z" fill="#FF9765" p-id="38058"></path></svg>