<?xml version="1.0" ?><!DOCTYPE svg  PUBLIC '-//W3C//DTD SVG 1.1//EN'  'http://www.w3.org/Graphics/SVG/1.1/DTD/svg11.dtd'><svg height="512px" style="enable-background: new 0 0 512 512" version="1.1" viewBox="0 0 512 512" width="512px" xml:space="preserve" xmlns="http://www.w3.org/2000/svg" xmlns:xlink="http://www.w3.org/1999/xlink"><g id="_x31_21-css3"><g transform="matrix(0.9,0,0,0.9,14.3,17.3)"><g><g><g><path d="M 47 17.3 L 85 447.9 l 170.8 47.9 l 170.7 -47.8 l 38.1 -430.7 H 47 z M 47 17.3" style="fill: #2299f8"/></g><path d="M 383.2 158.1 l -4.8 54.1 l -14.5 162.2 l -108.2 30 l -0.1 0 l -108.1 -30 l -7.5 -84.8 h 53 l 3.9 44 l 58.8 15.9 l 0 0 l 58.9 -15.9 l 8 -73.3 l -185.2 0.5 l -5.3 -50.1 l 194.8 -2.3 l 3.9 -53.6 l -204 0.6 l -3.4 -49.9 h 264.4 L 383.2 158.1 z M 383.2 158.1" style="fill: #fcfcfc"/></g></g></g></g><g id="Layer_1"/></svg>