<?xml version="1.0" standalone="no"?><!DOCTYPE svg PUBLIC "-//W3C//DTD SVG 1.1//EN" "http://www.w3.org/Graphics/SVG/1.1/DTD/svg11.dtd"><svg t="1691780082020" class="icon" viewBox="0 0 1024 1024" version="1.1" xmlns="http://www.w3.org/2000/svg" p-id="36052" width="16" height="16" xmlns:xlink="http://www.w3.org/1999/xlink"><path d="M896 832H128V490.667L512 128l384 362.667z" fill="#E8EAF6" p-id="36053"></path><path d="M832 448L725.333 341.333V192H832zM128 832h768v106.667H128z" fill="#C5CAE9" p-id="36054"></path><path d="M512 91.733l-426.667 396.8L128 535.467 512 179.2l384 356.267 42.667-46.934z" fill="#B71C1C" p-id="36055"></path><path d="M384 597.333h256v341.334H384z" fill="#D84315" p-id="36056"></path><path d="M448 362.667h128v128H448z" fill="#01579B" p-id="36057"></path><path d="M586.667 757.333c-6.4 0-10.667 4.267-10.667 10.667v42.667c0 6.4 4.267 10.666 10.667 10.666s10.666-4.266 10.666-10.666V768c0-6.4-4.266-10.667-10.666-10.667z" fill="#FF8A65" p-id="36058"></path></svg>