<?xml version="1.0" standalone="no"?><!DOCTYPE svg PUBLIC "-//W3C//DTD SVG 1.1//EN" "http://www.w3.org/Graphics/SVG/1.1/DTD/svg11.dtd"><svg t="1691819045008" class="icon" viewBox="0 0 1024 1024" version="1.1" xmlns="http://www.w3.org/2000/svg" p-id="216676" xmlns:xlink="http://www.w3.org/1999/xlink" width="16" height="16"><path d="M 443.2 661.3 c 0 46.5 30.4 84.2 67.8 84.2 c 37.4 0 67.8 -37.7 67.8 -84.2 V 571.1 H 443.2 v 90.3 z" fill="#edc19a" p-id="216677"></path><path d="M 252.1 383.1 c 0 30.1 24.4 54.4 54.4 54.4 s 54.4 -24.4 54.4 -54.4 s -24.4 -54.4 -54.4 -54.4 s -54.4 24.4 -54.4 54.4 z" fill="#efc29b" p-id="216678"></path><path d="M 280.9 383.1 a 25.7 25.7 0 1 0 51.4 0 c 0 -14.2 -11.5 -25.7 -25.7 -25.7 c -14.2 0 -25.7 11.5 -25.7 25.7 z" fill="#e89e80" opacity=".5" p-id="216679"></path><path d="M 663 383.1 c 0 30.1 24.4 54.4 54.4 54.4 s 54.4 -24.4 54.4 -54.4 s -24.4 -54.4 -54.4 -54.4 s -54.4 24.4 -54.4 54.4 z" fill="#efc29b" p-id="216680"></path><path d="M 691.7 383.1 a 25.7 25.7 0 1 0 51.4 0 c 0 -14.2 -11.5 -25.7 -25.7 -25.7 c -14.2 0 -25.7 11.5 -25.7 25.7 z" fill="#e89e80" opacity=".5" p-id="216681"></path><path d="M 508.1 54.4 h 7.8 C 627.2 54.4 717.4 146 717.4 258.9 v 137.6 C 717.4 511.6 625.4 605 512 605 h -3.9 C 396.8 605 306.6 513.4 306.6 400.5 V 258.9 C 306.6 146 396.8 54.4 508.1 54.4 z" fill="#f6d1b1" p-id="216682"></path><path d="M 595.4 383.9 c 0 10.8 8.7 19.5 19.5 19.5 c 10.8 0 19.5 -8.7 19.5 -19.5 c 0 -10.8 -8.7 -19.5 -19.5 -19.5 c -10.8 0 -19.5 8.7 -19.5 19.5 z M 388.7 383.9 c 0 10.8 8.7 19.5 19.5 19.5 s 19.5 -8.7 19.5 -19.5 c 0 -10.8 -8.7 -19.5 -19.5 -19.5 s -19.5 8.7 -19.5 19.5 z M 577 307.6 c 28.3 -13.1 54.4 -12.1 77.7 2.9 a 6.2 6.2 0 1 1 -6.7 10.4 c -19.6 -12.7 -41.3 -13.4 -65.8 -2.1 a 6.2 6.2 0 0 1 -5.2 -11.2 z M 447.2 307.6 a 6.2 6.2 0 1 1 -5.2 11.2 c -24.5 -11.3 -46.2 -10.6 -65.8 2.1 a 6.2 6.2 0 0 1 -6.7 -10.4 c 23.2 -15 49.4 -16 77.7 -2.9 z" fill="#331d12" p-id="216683"></path><path d="M 513 524.6 c 5.3 0 14.6 -5.4 28.1 -8.8 c 2.1 -0.5 4.3 -0.3 6.1 0.6 c 1.8 0.9 2.8 2.4 2.8 4 v 4.3 c 0 2.1 -1.8 3.9 -4.5 4.6 C 529.4 533.4 518.6 539.2 513 539.2 c -5.5 0 -16.4 -5.8 -32.5 -9.9 c -2.7 -0.7 -4.5 -2.5 -4.5 -4.6 v -4.3 c 0 -1.6 1 -3 2.8 -4 c 1.8 -0.9 4 -1.2 6.1 -0.6 c 13.5 3.3 22.8 8.8 28.1 8.8 z" fill="#e28059" p-id="216684"></path><path d="M 746.2 855.6 v 168.4 H 275.8 V 855.6 c 0 -98.6 72.7 -180.2 167.4 -194.1 v 2.5 c 0 28.1 22.8 50.8 50.8 50.8 h 33.9 c 28.1 0 50.8 -22.8 50.8 -50.8 v -2.5 C 673.5 675.4 746.2 757 746.2 855.6 z" fill="#ffffff" p-id="216685"></path><path d="M 443.2 661.5 L 443.2 1024 H 275.8 V 855.6 c 0 -98.6 72.7 -180.2 167.4 -194.1 z" fill="#cd6c72" p-id="216686"></path><path d="M 443.2 645.7 l -57.4 34.5 L 361 773.4 l 82.2 29.2 z" fill="#c95b62" p-id="216687"></path><path d="M 579.8 661.5 C 674.5 675.4 747.2 757 747.2 855.6 v 168.4 H 579.8 z" fill="#cd6c72" p-id="216688"></path><path d="M 579.8 645.7 l 57.4 34.5 L 662 773.4 l -82.2 29.2 z" fill="#c95b62" p-id="216689"></path><path d="M 443.2 338.9 c 31.2 0 56.5 25.3 56.5 56.5 v 5.1 c 0 31.2 -25.3 56.5 -56.5 56.5 h -68.2 c -29.9 0 -54.6 -23.3 -56.4 -53.2 l -2.6 -45.4 c -0.6 -10.2 7.2 -18.9 17.4 -19.5 a 18.5 18.5 0 0 1 1.1 0 H 443.2 z m 251.6 0 c 0.4 0 0.7 0 1.1 0 c 10.2 0.6 18 9.3 17.4 19.5 l -2.6 45.4 C 708.9 433.7 684.2 457.1 654.2 457.1 h -68.2 c -31.2 0 -56.5 -25.3 -56.5 -56.5 v -5.1 c 0 -31.2 25.3 -56.5 56.5 -56.5 z m -251.6 10.3 H 334.4 a 8.2 8.2 0 0 0 -8.2 8.4 l 0 0.3 l 2.6 45.4 c 1.4 24.2 21.3 43.1 45.4 43.5 l 0.7 0 H 443.2 c 25.3 0 45.8 -20.3 46.2 -45.5 L 489.4 400.6 v -5.1 c 0 -25.3 -20.3 -45.8 -45.5 -46.2 L 443.2 349.2 z m 251.6 0 H 586 l -0.8 0 c -25.2 0.4 -45.5 20.9 -45.5 46.2 v 5.1 l 0 0.8 c 0.4 25.2 20.9 45.5 46.2 45.5 h 68.2 l 0.7 0 c 24.1 -0.4 44 -19.3 45.4 -43.5 l 2.6 -45.4 l 0 -0.3 A 8.2 8.2 0 0 0 694.8 349.2 z" fill="#2a2a2a" p-id="216690"></path><path d="M 531.5 392.9 v 10.3 h -37 v -10.3 z" fill="#2a2a2a" p-id="216691"></path><path d="M 482.2 582.4 m 14.4 0 l 34.9 0 q 14.4 0 14.4 14.4 l 0 0 q 0 14.4 -14.4 14.4 l -34.9 0 q -14.4 0 -14.4 -14.4 l 0 0 q 0 -14.4 14.4 -14.4 Z" fill="#1c3244" p-id="216692"></path><path d="M 514.2 478.3 a 5.1 5.1 0 0 1 5 2.2 c 6.7 9.7 18.2 14.6 35.2 14.6 a 5.1 5.1 0 1 1 0 10.3 c -17.7 0 -31.2 -4.9 -40.2 -14.7 c -9 9.8 -22.5 14.7 -40.2 14.7 a 5.1 5.1 0 1 1 0 -10.3 c 17 0 28.5 -4.9 35.2 -14.6 A 5.1 5.1 0 0 1 514.2 478.3 z" fill="#1c3244" p-id="216693"></path><path d="M 677.8 39 c 48.7 60.3 65.1 103.3 49.2 129.2 a 109.2 109.2 0 0 1 -1.8 5 c 5.2 1.3 9.7 4.7 13.7 10.1 c 11.2 15.3 16.4 54.3 15.4 117.1 l 0 1.9 a 32.9 32.9 0 0 1 -17.7 28.6 c -15.6 8.1 -26.8 10 -33.5 5.8 c -8.7 -5.5 -20.9 -45.2 -36.6 -119.1 c -37.2 3.3 -136.6 2.8 -298.1 -1.5 c -1.9 0.3 -3.7 0.5 -5.5 0.7 c -15.8 74.4 -28 114.3 -36.8 119.8 c -6.8 4.3 -18.2 2.3 -34.2 -6.2 a 31.8 31.8 0 0 1 -17 -27.6 c -1.1 -64.2 4 -104.1 15.4 -119.6 c 1.6 -2.1 3.2 -3.9 4.9 -5.4 a 98.5 98.5 0 0 1 -2.8 -9.7 C 279 110.4 325.9 69.4 395 55.6 C 464 41.7 604.7 -51.4 677.8 39 z" fill="#1c3244" p-id="216694"></path><path d="M 589 858.1 a 10.3 9.8 0 1 0 20.5 0 a 10.3 9.8 0 1 0 -20.5 0 Z" fill="#ffffff" p-id="216695"></path><path d="M 589 952.6 a 10.3 9.8 0 1 0 20.5 0 a 10.3 9.8 0 1 0 -20.5 0 Z" fill="#ffffff" p-id="216696"></path></svg>