<?xml version="1.0" standalone="no"?><!DOCTYPE svg PUBLIC "-//W3C//DTD SVG 1.1//EN" "http://www.w3.org/Graphics/SVG/1.1/DTD/svg11.dtd"><svg t="1691816006176" class="icon" viewBox="0 0 1024 1024" version="1.1" xmlns="http://www.w3.org/2000/svg" p-id="91907" xmlns:xlink="http://www.w3.org/1999/xlink" width="16" height="16"><path d="M 254.4 93.1 c -34 0 -60.7 28.9 -60.7 64 v 674.9 c 0 35.1 26.7 64 60.7 64 h 556.4 C 845 895.9 872.6 867.3 872.8 832 V 347.8 L 643.1 93.1 h -388.8 z" fill="#41b883" p-id="91908"></path><path d="M 646 93.1 v 179.4 c 0 19.7 13.2 71.3 73.2 71.3 h 153.6 L 646 93.1 z" fill="#ffffff" p-id="91909"></path><path d="M 342.9 623.4 c 0 -2.1 -0.1 -4 -0.2 -5.6 s -0.4 -3.2 -0.6 -4.6 l -0.6 -4.2 C 341 605.3 341.1 601.6 341.7 598 c 0.3 -2 0.9 -3.9 1.6 -5.5 s 1.7 -2.9 3.1 -3.9 s 2.9 -1.5 4.9 -1.5 c 2.8 0 5.1 0.7 6.9 2.3 s 3 3.4 4 5.7 s 1.6 5 1.9 7.9 s 0.5 5.9 0.5 8.7 c 0 2.5 -0.2 6.5 -0.6 11.8 s -0.8 12 -1.2 19.9 s -0.9 17.2 -1.2 27.7 s -0.6 22 -0.6 34.7 c 0 4.1 0.2 8.5 0.4 13.4 s 0.9 9.7 1.7 14.1 s 2.1 8.4 3.6 11.7 s 3.6 5.5 6.3 6.5 c 6.6 -7.5 12.6 -15.6 18 -24.4 s 10.4 -17.6 14.8 -26.5 s 8.4 -17.7 12 -26.3 s 6.8 -16.4 9.7 -23.5 c 2.7 -6.9 5.1 -13.2 7.4 -18.8 s 4.1 -10.8 5.9 -15.7 s 3.3 -9.3 4.6 -13.4 s 2.5 -8.1 3.6 -12 c 0.3 -0.9 0.7 -2.1 1.4 -3.8 s 1.7 -3.1 3.1 -4.3 c 1.9 -1.6 4.8 -2.5 8.9 -2.5 c 2.5 0 4.3 0.7 5.5 2 s 1.7 3.3 1.7 5.7 l -0.1 3.1 C 469.2 592.3 468.9 593.4 468.6 594.4 c -1.7 5.4 -3.8 11.5 -6.5 18.3 s -5.5 14.2 -8.5 21.9 c -2.8 7.2 -5.7 14.6 -8.7 22.2 s -6.1 15 -9.2 22.3 s -6.3 14.3 -9.5 21 s -6.3 12.9 -9.3 18.5 C 407.8 735.1 397.9 751 387.1 765.9 c -1.2 1.6 -2.5 3.3 -3.6 4.8 s -2.5 2.9 -3.9 4.1 s -2.8 2.2 -4.4 2.9 s -3.3 1.1 -5.1 1.1 c -2.8 0 -5.4 -0.7 -7.5 -2.3 s -4 -3.3 -5.7 -5.6 s -3.1 -4.7 -4.4 -7.4 s -2.3 -5.4 -3.3 -7.9 c -1.3 -3.2 -2.4 -6.6 -3.2 -10.3 s -1.7 -7.6 -2.2 -11.7 s -1 -8.2 -1.3 -12.4 C 342.1 715.5 342 709.8 342.1 704 l 0.2 -9.9 C 342.5 684.1 342.6 674.1 342.7 664 C 342.8 652.6 342.9 641.1 342.9 629.8 v -6.3 z M 477.2 708.8 c 1.6 -8.9 3.2 -16.8 5.1 -23.7 s 3.6 -13.4 5.4 -19.4 s 3.5 -11.7 5.1 -17.2 s 3 -11.1 4.2 -17 l 1.3 -6.3 c 0.3 -1.5 0.6 -3.5 0.7 -5.9 l 0.7 -7.4 c 0.2 -2.6 0.6 -5.1 1 -7.6 s 1 -4.8 1.9 -6.8 s 1.9 -3.7 3.2 -5 s 2.9 -1.9 4.9 -1.9 c 2.2 0 4.1 0.5 5.6 1.5 s 2.8 2.3 3.7 3.8 s 1.6 3.4 2.1 5.5 s 0.6 4.1 0.6 6.3 c 0 1.9 -0.1 3.7 -0.2 5.5 s -0.5 3.5 -0.8 5.1 c -0.8 3.9 -2.1 8.5 -3.9 13.7 l -5.9 17.4 c -2.1 6.3 -4.3 13.2 -6.5 20.6 s -4.2 15.2 -5.9 23.4 c -1 4.6 -1.9 9.7 -2.6 15.2 s -1.1 10.5 -1.1 15 c 0 3.6 0.2 7 0.7 10.2 s 1.4 6 2.7 8.4 s 3 4.3 5.2 5.7 s 5 2.1 8.3 2.1 c 2.6 0 5.2 -0.2 8 -0.8 s 6 -1.8 9.8 -3.8 c 5.5 -3.1 10.8 -7 15.8 -11.9 s 9.6 -10.4 13.8 -16.6 s 8.2 -12.9 11.8 -20.1 s 6.9 -14.6 9.8 -22.3 s 5.5 -15.5 7.8 -23.3 s 4.2 -15.6 5.7 -23.2 C 596.2 622.1 597 616.2 597.3 610.1 c 0.2 -3 0.3 -6.2 0.4 -9.6 s 0.3 -7.3 0.6 -11.6 c 0.2 -3.5 1 -6.5 2.4 -9.1 s 3.5 -3.9 6.4 -3.9 c 1.8 0 3.3 0.9 4.7 2.6 s 2.4 3.9 3.2 6.5 s 1.5 5.3 1.9 8.2 s 0.6 5.5 0.6 7.7 c 0 4.4 -0.4 9.1 -1.1 14.2 s -1.6 9.9 -2.6 14.6 c -2.1 10.1 -4.5 20.2 -7.4 30.3 s -6.3 20.1 -10.3 29.8 s -8.6 19.1 -13.9 28.3 s -11.4 17.7 -18.4 25.6 c -3.4 3.9 -7.1 7.8 -11.1 11.6 s -8.2 7.2 -12.5 10.3 s -8.8 5.5 -13.4 7.4 s -9.1 2.8 -13.6 2.8 c -6.5 0 -12.1 -1.1 -16.9 -3.3 s -8.7 -5.4 -12 -9.4 s -5.5 -8.8 -7.1 -14.4 s -2.4 -11.6 -2.4 -18.3 c 0 -3.2 0.2 -6.6 0.6 -10.4 s 1 -7.6 1.7 -11.2 z M 620.4 762.2 c 0 -3.1 0.4 -6.3 1.1 -9.7 c 2.5 -11.9 5.2 -23.6 8.5 -35 s 6.2 -22.8 8.8 -34.1 s 4.8 -20.8 6.6 -28.6 s 3.3 -14.4 4.7 -19.9 s 2.6 -10.3 3.7 -14.4 s 2.4 -8 3.7 -12 c 0.9 -2.4 1.8 -4.8 2.8 -7.3 s 2.1 -4.9 3.4 -7 s 2.5 -3.9 3.8 -5.2 s 2.7 -2 4.1 -2 c 2.9 0 5.1 0.6 6.6 1.8 s 2.5 2.3 2.8 3.3 l 0.9 5.4 c 1.1 -0.1 2.5 -0.3 4.2 -0.7 s 3.4 -0.8 5.2 -1.2 s 3.4 -0.9 4.9 -1.3 s 2.6 -0.8 3.4 -1.2 c 4.7 -1.5 9 -2.9 13.1 -4.1 s 7.8 -2.1 11.4 -2.8 s 7 -1.3 10.3 -1.6 s 6.6 -0.5 10 -0.5 c 3.3 0 5.9 0.2 8 0.7 s 3.7 1.1 4.9 1.8 s 2.1 1.6 2.5 2.6 s 0.7 2.1 0.7 3.3 c 0 1.1 -0.2 2.2 -0.7 3.3 s -1.2 2.3 -2.3 3.3 s -2.5 2 -4.2 2.8 s -3.9 1.3 -6.4 1.5 c -0.6 0.2 -2.1 0.5 -4.4 1 l -7.5 1.5 l -7.7 1.6 C 725.7 607.6 724 608 722.4 608.5 h 0.1 c -0.4 0.1 -1.4 0.4 -3.1 1 s -3.6 1.2 -5.9 2 s -4.7 1.6 -7.4 2.5 l -7.9 2.8 C 694 618.3 689.8 619.8 685.6 621.5 c -4.4 2.1 -7.8 4.9 -10.2 8.3 s -4.4 7.3 -5.9 11.6 c -0.3 0.8 -0.7 2.1 -1.3 4 l -1.9 6.4 l -2.2 7.6 l -2.2 7.7 c -0.7 2.4 -1.3 4.7 -1.9 6.7 s -0.9 3.5 -1.1 4.5 c -0.2 0.9 -0.4 1.6 -0.4 2.4 s -0.1 1.2 -0.1 1.5 c 0 0.5 0.1 0.8 0.3 0.8 c 1.1 0 3.3 -0.6 6.6 -1.8 s 7.4 -2.6 11.9 -4.4 l 14.6 -5.6 c 5.1 -2 10.1 -3.9 14.9 -5.6 s 8.9 -3.3 12.7 -4.4 s 6.4 -1.8 8 -1.8 c 2.5 0 4.2 0.5 5 1.5 s 1.3 2.1 1.3 3.3 c 0 3.2 -0.9 5.9 -2.7 8.3 s -4.1 4.4 -6.8 6.2 c -0.9 0.5 -2.5 1.3 -4.7 2.3 s -4.8 2 -7.5 3.1 l -7.7 3 l -5.2 2.1 c -7 3.3 -12.7 6.1 -17.1 8.2 s -7.9 3.9 -10.6 5.2 l -6.3 3.1 c -1.4 0.7 -2.8 1.3 -4 1.8 s -2.6 1 -4.1 1.4 l -6.2 1.9 c -0.6 1.9 -1.4 4.6 -2.2 8.3 s -1.7 7.6 -2.5 11.6 s -1.4 7.6 -2 11.1 s -0.8 5.8 -0.8 7.1 c 0 1.5 0.2 2.8 0.6 3.5 s 0.8 1.2 1.3 1.5 s 1 0.4 1.5 0.4 h 1.2 c 3.4 0 7.5 -0.6 12.3 -1.9 s 9.6 -2.8 14.2 -4.9 c 4.5 -2 8.4 -4.1 11.8 -6.3 s 6.5 -4.4 9.5 -6.3 s 5.9 -3.7 8.7 -5 s 5.9 -2.1 9.3 -2.2 c 0.7 0 1.6 0.1 2.5 0.2 s 1.9 0.5 2.7 1 s 1.6 1.1 2.1 1.9 s 0.7 1.8 0.6 3 c -0.3 2.5 -1.3 5 -3.1 7.5 s -4 4.8 -6.7 7.1 s -5.7 4.6 -9 6.6 s -6.8 4.1 -10.3 5.9 s -6.9 3.6 -10.3 5.1 s -6.3 2.8 -8.9 4 c -6.6 2.8 -13 4.9 -19.2 6.2 s -11.8 2 -16.7 2 c -5.5 0 -9.6 -1.2 -12.5 -3.7 s -4.3 -6.7 -4.3 -12.4 z" fill="#ffffff" p-id="91910"></path></svg>