<?xml version="1.0" standalone="no"?><!DOCTYPE svg PUBLIC "-//W3C//DTD SVG 1.1//EN" "http://www.w3.org/Graphics/SVG/1.1/DTD/svg11.dtd"><svg t="1691815041277" class="icon" viewBox="0 0 1024 1024" version="1.1" xmlns="http://www.w3.org/2000/svg" p-id="57415" xmlns:xlink="http://www.w3.org/1999/xlink" width="16" height="16"><path d="M 843.2 128.7 l -750.1 292.8 c -10.8 5.2 -17.7 15.1 -19.1 26.2 c -0.7 11.8 7.3 22.6 19.1 26.2 l 287.7 114.3 c 7.6 3.3 13.9 8.8 17 16 l 112.9 268.6 c 4.5 10.8 15.3 17.7 27.8 18 c 12.5 0.7 24 -6.9 27.8 -18 l 315.5 -705.8 c 4.5 -10.5 1.7 -22.3 -6.3 -30.1 c -8.7 -8.2 -20.8 -11.5 -32.3 -8.2 z" fill="#179d80" p-id="57416"></path><path d="M 837.7 129.3 L 89.6 421.8 c -11.3 4 -18.5 14.2 -18.5 25.8 c -0.7 11.9 6.8 22.5 18.5 26.1 l 306 116.2 c 132.1 -130.1 175.6 -154.2 473.4 -454.7 c -8.2 -7.9 -20.5 -10.3 -31.1 -6 z" fill="#3cb699" p-id="57417"></path></svg>