<svg width="410" height="404" viewBox="0 0 410 404" fill="none" xmlns="http://www.w3.org/2000/svg">
<path d="M 370.4 73.8 L 222.1 368.3 C 219 374.3 211.2 374.4 208.1 368.3 L 56.8 73.8 C 53.4 67.3 58.5 59.3 65.2 60.6 L 213.7 90.1 C 214.6 90.3 215.6 90.3 216.6 90.1 L 362 60.6 C 368.7 59.3 373.8 67.2 370.4 73.8 Z" fill="url(#paint0_linear)"/>
<path d="M 276.5 24.5 L 176.5 47.5 C 174.8 47.9 173.6 49.5 173.5 51.5 L 167.3 173.7 C 167.2 176.6 169.4 178.8 171.8 178.2 L 199.7 170.6 C 202.3 169.9 204.7 172.6 204.1 175.7 L 195.8 223.3 C 195.3 226.5 197.9 229.3 200.5 228.3 L 217.7 222.2 C 220.4 221.2 223 224 222.4 227.2 L 209.2 302 C 208.4 306.7 213.7 309.2 215.9 305.2 L 217.4 302.6 L 298.9 111.3 C 300.3 108.1 298 104.4 295 105.1 L 266.3 111.6 C 263.6 112.2 261.3 109.3 262.1 106.2 L 280.8 29.9 C 281.5 26.8 279.2 23.9 276.5 24.5 Z" fill="url(#paint1_linear)"/>
<defs>
<linearGradient id="paint0_linear" x1="6.00017" y1="32.9999" x2="235" y2="344" gradientUnits="userSpaceOnUse">
<stop stop-color="#41d1ff"/>
<stop offset="1" stop-color="#bd34fe"/>
</linearGradient>
<linearGradient id="paint1_linear" x1="194.651" y1="8.81818" x2="236.076" y2="292.989" gradientUnits="userSpaceOnUse">
<stop stop-color="#ffea83"/>
<stop offset="0.1" stop-color="#ffdd35"/>
<stop offset="1" stop-color="#ffa800"/>
</linearGradient>
</defs>
</svg>
