<?xml version="1.0" standalone="no"?><!DOCTYPE svg PUBLIC "-//W3C//DTD SVG 1.1//EN" "http://www.w3.org/Graphics/SVG/1.1/DTD/svg11.dtd"><svg t="1691822084897" class="icon" viewBox="0 0 1041 1024" version="1.1" xmlns="http://www.w3.org/2000/svg" p-id="251119" xmlns:xlink="http://www.w3.org/1999/xlink" width="16.3" height="16"><path d="M 513.7 512 m -512 0 a 512 512 0 1 0 1024 0 a 512 512 0 1 0 -1024 0 Z" fill="#00c250" p-id="251120"></path><path d="M 699.9 552.4 c -14.5 0 -26.4 -11.9 -26.4 -26.7 c 0 -14.7 11.8 -26.7 26.4 -26.7 c 14.5 0 26.4 11.9 26.4 26.7 c 0 14.8 -11.8 26.7 -26.4 26.7 m -135.5 0 c -14.5 0 -26.4 -11.9 -26.4 -26.7 c 0 -14.7 11.8 -26.7 26.4 -26.7 c 14.5 0 26.4 11.9 26.4 26.7 c 0 14.8 -11.8 26.7 -26.4 26.7 m 256.6 38 c 0 -86.4 -76.8 -157.2 -174 -163.3 A 250.6 250.6 0 0 0 633.2 426.7 c -103.7 0 -187.7 73.3 -187.7 163.7 c 0 13.6 1.9 26.8 5.6 39.4 c 20.2 71.4 94.1 124.3 182.2 124.3 c 30 0 58.3 -6.1 83.4 -17 l 42.2 28.9 s 11.2 7.9 10.1 -7.3 l -11.9 -45.2 c 39.3 -30 64 -74 64 -123.1" fill="#ffffff" p-id="251121"></path><path d="M 342.9 410.9 c -14.9 0 -27 -11.9 -27 -26.7 c 0 -14.8 12.1 -26.8 27.1 -26.8 c 15 0 27 12 27 26.8 c 0 14.8 -12 26.7 -27 26.7 m 170.3 -53.5 c 14.9 0 27.1 12 27.1 26.8 c 0 14.8 -12.1 26.7 -27.1 26.7 c -15 0 -27.1 -11.9 -27.1 -26.7 c 0 -14.8 12 -26.8 27.1 -26.8 m 124.7 60.3 c 4.2 0 8.2 0.2 12.3 0.3 C 634.4 326.4 541.6 256 429.6 256 C 306.4 256 206.5 341.1 206.5 445.8 c 0 58.4 31 110.6 79.8 145.5 l -16.5 60.8 s -5.6 20.2 15.7 11.1 l 61.4 -41 a 255.3 255.3 0 0 0 82.6 13.6 c 2.5 0 4.9 -0.2 7.4 -0.2 a 152.1 152.1 0 0 1 -5.5 -40.3 c 0 -97.9 92.7 -177.6 206.5 -177.6" fill="#ffffff" p-id="251122"></path></svg>